<?xml version="1.0" standalone="no"?>
<!DOCTYPE svg PUBLIC "-//W3C//DTD SVG 20010904//EN"
 "http://www.w3.org/TR/2001/REC-SVG-20010904/DTD/svg10.dtd">
<svg version="1.0" xmlns="http://www.w3.org/2000/svg"
 width="216.000000pt" height="216.000000pt" viewBox="0 0 216.000000 216.000000"
 preserveAspectRatio="xMidYMid meet">
<metadata>
Created by potrace 1.11, written by Peter Selinger 2001-2013
</metadata>
<g transform="translate(0.000000,216.000000) scale(0.100000,-0.100000)"
fill="#000000" stroke="none">
<path d="M0 1080 l0 -1080 1080 0 1080 0 0 1080 0 1080 -1080 0 -1080 0 0
-1080z m2130 0 l0 -1050 -1050 0 -1050 0 0 1050 0 1050 1050 0 1050 0 0 -1050z"/>
<path d="M515 1370 c3 -6 10 -8 15 -5 5 3 18 -3 28 -13 18 -18 19 -37 19 -252
0 -216 -1 -234 -19 -252 -10 -10 -23 -16 -28 -13 -5 3 -11 1 -15 -5 -4 -6 31
-10 102 -10 l108 1 -35 17 -35 17 -3 118 -3 117 54 0 c39 0 59 -5 74 -20 24
-22 25 -25 48 -132 19 -87 48 -128 90 -128 41 0 84 28 85 53 0 5 -12 -1 -27
-13 l-27 -21 -16 21 c-9 12 -22 49 -29 83 -20 99 -35 125 -81 146 l-40 18 38
11 c60 18 94 62 100 124 3 44 0 58 -19 82 -41 52 -86 64 -246 65 -100 1 -143
-1 -138 -9z m272 -22 c53 -25 71 -115 38 -191 -10 -25 -57 -47 -107 -51 -68
-6 -68 -6 -68 115 0 94 3 112 19 128 21 21 72 21 118 -1z"/>
<path d="M1097 1364 c17 -7 34 -21 37 -31 2 -10 4 -121 4 -246 -1 -217 -2
-228 -21 -242 -11 -8 -24 -12 -28 -9 -4 2 -10 0 -14 -6 -4 -6 31 -10 102 -10
l108 0 -35 18 -35 17 0 120 0 120 128 0 127 1 0 -112 c0 -123 -4 -144 -29
-144 -9 0 -23 -5 -31 -10 -10 -7 19 -10 93 -10 59 0 107 4 107 8 0 4 -10 8
-21 9 -12 1 -27 7 -33 13 -10 10 -17 443 -8 483 3 10 19 24 36 32 29 12 24 13
-71 14 -57 1 -103 -3 -103 -7 0 -4 10 -8 22 -9 11 -1 25 -8 29 -15 5 -7 9 -64
9 -125 l0 -113 -130 0 -130 0 0 108 c0 59 4 113 9 121 5 8 22 20 38 27 25 11
15 12 -82 12 -102 0 -108 -1 -78 -14z"/>
</g>
</svg>
